<?xml version="1.0" encoding="UTF-8"?><svg id="Layer_2" xmlns="http://www.w3.org/2000/svg" viewBox="0 0 308.77 295.8"><defs><style>.cls-1{fill:#6e958c;stroke-width:0px;}</style></defs><g id="Layer_1-2"><g id="P2Eldt.tif"><path class="cls-1" d="M78.76,255.83c-4.89,2.87-9.55,5.66-14.27,8.35-14.51,8.27-30.33,12.34-46.76,14.4-2.34.29-4.67.67-7.02.92-5.11.53-9.4-2.39-10.47-7.07-1.08-4.76,1.39-9.38,6.37-10.8,5.13-1.47,10.41-2.43,15.65-3.51,16.18-3.32,30.51-10.8,44.31-19.52,1.39-.88,1.44-1.72.84-3.13-9.43-22.09-11.99-45.23-10.65-69,1.09-19.27,3.76-38.26,9.25-56.78,8.43-28.47,20.85-54.93,40.27-77.69,9.65-11.3,20.95-20.6,34.64-26.7,13.9-6.2,27.98-7.55,42.09-.79,15.87,7.61,23.37,21.11,25.78,37.88,2.43,16.86-.27,33.27-5.02,49.42-.58,1.96-.29,2.81,1.63,3.71,21.4,10.03,35.68,26.55,43.84,48.56.85,2.28,1.65,4.59,2.59,7.21.87-.58,1.6-1.01,2.27-1.53,12.88-10.05,24.44-21.37,33.56-35.03,1.36-2.03,2.83-4.01,4.46-5.83,3.25-3.63,7.68-4.52,11.57-2.53,3.95,2.03,6.22,6.52,4.51,11.1-1.92,5.12-4.29,10.25-7.42,14.71-10.48,14.93-23.85,27.09-38.65,37.58-4.33,3.07-5.77,6.02-5.58,11.4.98,28.48-5.92,54.87-22.86,78.14-14.34,19.7-33.87,31.03-57.87,34.79-16.42,2.58-32.74,2.6-48.77-2.34-17.17-5.29-30.87-15.78-42.61-29.07-1.92-2.17-3.7-4.46-5.67-6.85ZM85.6,224.52c.66-.36,1.08-.51,1.42-.78,19.08-15.26,36.15-32.48,50.93-51.96,1-1.32.53-2.1-.17-3.31-2.95-5.17-6.5-10.18-8.43-15.73-6.62-18.99-3.41-36.2,11.31-50.46,9.74-9.44,21.87-13.21,35.25-13.39,2.23-.03,5.16.75,6.52-.36,1.53-1.26,1.77-4.2,2.36-6.47,3.37-12.92,5.17-25.95,2.83-39.31-2.73-15.67-15.22-24.38-30.49-20.92-7.73,1.75-14.5,5.66-20.76,10.42-12.12,9.21-21.3,20.96-28.94,33.97-22.95,39.13-32.34,81.44-29.24,126.57.74,10.82,3.23,21.31,7.42,31.72ZM236.14,185.31c-5.01,1.54-9.11,2.97-13.29,4.06-22.26,5.81-44.02,4.49-65.09-5.01-1.75-.79-2.62-.66-3.79.89-16.22,21.35-35.08,40.1-56.11,56.7-.62.49-1.19,1.04-1.81,1.58.27.48.41.82.63,1.09,1.5,1.82,2.95,3.69,4.54,5.42,9.99,10.91,21.52,19.43,36.24,22.84,10.93,2.53,21.95,2.28,32.99.82,20.67-2.74,37.02-12.46,48.61-29.96,8.25-12.47,13.23-26.17,15.37-40.9.81-5.62,1.12-11.31,1.72-17.53ZM168.38,166.1c.24.13.69.45,1.18.63,21.07,7.89,41.75,6.37,62.07-2.72.64-.28,1.26-1.76,1.08-2.49-.74-3.07-1.68-6.11-2.73-9.1-5.54-15.72-15.07-28.18-29.91-36.21-1.39-.75-2.87-1.35-3.76-1.76-9.39,17.36-18.59,34.38-27.92,51.65ZM151.97,151.44c8.41-13.35,15.83-26.88,22.32-41.08-8.99-1.06-19.62,5.17-24.39,13.61-5.02,8.87-2.07,22.34,2.07,27.47Z"/></g></g></svg>