<?xml version="1.0" encoding="UTF-8"?>
<svg id="Layer_2" data-name="Layer 2" xmlns="http://www.w3.org/2000/svg" xmlns:xlink="http://www.w3.org/1999/xlink" viewBox="0 0 155.64 62.46">
  <defs>
    <style>
      .cls-1 {
        fill: url(#linear-gradient);
      }

      .cls-2 {
        fill: url(#linear-gradient-3);
      }

      .cls-3 {
        fill: url(#linear-gradient-4);
      }

      .cls-4 {
        fill: url(#linear-gradient-2);
      }

      .cls-5 {
        fill: url(#linear-gradient-6);
      }

      .cls-6 {
        fill: url(#linear-gradient-7);
      }

      .cls-7 {
        fill: url(#linear-gradient-5);
      }
    </style>
    <linearGradient id="linear-gradient" x1="17.12" y1="41.43" x2="54.62" y2="41.43" gradientUnits="userSpaceOnUse">
      <stop offset="0" stop-color="#a8c9c2"/>
      <stop offset=".99" stop-color="#c8e8e8"/>
    </linearGradient>
    <linearGradient id="linear-gradient-2" x1="46.09" y1="41.89" x2="79.46" y2="41.89" xlink:href="#linear-gradient"/>
    <linearGradient id="linear-gradient-3" x1="73.81" y1="35.01" x2="100.65" y2="35.01" xlink:href="#linear-gradient"/>
    <linearGradient id="linear-gradient-4" x1="91.64" y1="35.01" x2="118.47" y2="35.01" xlink:href="#linear-gradient"/>
    <linearGradient id="linear-gradient-5" x1="110.47" y1="42.59" x2="145.09" y2="42.59" xlink:href="#linear-gradient"/>
    <linearGradient id="linear-gradient-6" x1="118.86" y1="36.64" x2="155.64" y2="36.64" xlink:href="#linear-gradient"/>
    <linearGradient id="linear-gradient-7" x1="0" y1="30.89" x2="44.15" y2="30.89" xlink:href="#linear-gradient"/>
  </defs>
  <g id="Layer_1-2" data-name="Layer 1">
    <path class="cls-1" d="M41.82,61.47c-1.5,0-3.06-.33-4.59-1.16-5.63-3.02-5.29-9.37-4.3-12.39l3.85-13.07c.08-.8,.34-4.48-1.5-5.2-4.12-1.62-9.47,5.91-10.68,8.02-1.1,1.91-3.54,2.58-5.46,1.49-1.92-1.09-2.59-3.53-1.5-5.45,3.38-5.95,11.52-15.07,20.57-11.5,6.55,2.58,7.12,10.11,6.43,14.15-.03,.15-.06,.3-.1,.45l-3.95,13.43s-.03,.1-.05,.15h0s-.68,2.26,.47,2.87c1.62,.87,5.21-1.53,6.77-3.11,1.55-1.58,4.08-1.6,5.66-.05,1.58,1.55,1.6,4.08,.05,5.66-.69,.71-5.82,5.71-11.66,5.71Z"/>
    <path class="cls-4" d="M62.02,62.03c-1.97,0-4.02-.35-6.1-1.21-2.81-1.16-4.85-2.53-6.31-3.99-1-.26-1.89-.9-2.45-1.86-.51-.88-.65-1.87-.47-2.79-1.04-3.14-.5-6.09-.2-7.7l.09-.52c.68-3.93,4.71-13.99,9.69-18.41,5.03-4.47,9.78-3.88,11.81-3.62,.18,.02,.34,.05,.49,.06,2.4,.17,5.15,2.18,6.69,4.88,1.91,3.33,1.91,7.29,0,11.15-2.45,4.96-11.13,11.17-17.15,15.04,.27,.12,.55,.25,.85,.37,6.44,2.64,13.59-4.41,13.66-4.48,1.56-1.56,4.09-1.58,5.65-.02,1.57,1.55,1.59,4.07,.04,5.64-.36,.37-7.47,7.47-16.3,7.47Zm3.65-32.28c-1.16,0-2.45,.33-4.08,1.78-3.37,2.99-6.68,11.25-7.12,13.79l-.11,.61s0,0,0,0c6.05-3.96,12.39-8.78,13.73-11.47,.6-1.21,.75-2.27,.45-3.15-.25-.74-.77-1.21-1.04-1.4-.13-.01-.27-.03-.41-.05-.46-.06-.93-.12-1.42-.12Zm2.33,.21h0Z"/>
    <path class="cls-2" d="M84.17,62.46c-1.5,0-3.16-.26-4.93-.94-2.14-.82-3.74-2.32-4.63-4.34-1.62-3.66-.36-7.77,.09-9l10.4-37.67c.59-2.13,2.79-3.38,4.92-2.79,2.13,.59,3.38,2.79,2.79,4.92l-10.45,37.85c-.04,.13-.08,.26-.13,.39-.43,1.16-.53,2.74-.29,3.1h0s.06,.04,.16,.08c2.45,.94,4.26,.07,5.77-.82l.27-.16c1.96-1.13,3.62-3.68,4.66-7.18,.63-2.12,2.86-3.32,4.98-2.69,2.12,.63,3.32,2.86,2.69,4.98-2.09,7.02-5.69,10.31-8.35,11.83l-.19,.11c-1.14,.67-3.96,2.33-7.77,2.33Z"/>
    <path class="cls-3" d="M102,62.46c-1.5,0-3.16-.26-4.93-.94-2.14-.82-3.74-2.32-4.63-4.34-1.62-3.66-.36-7.77,.09-9l10.4-37.67c.59-2.13,2.78-3.38,4.92-2.79,2.13,.59,3.38,2.79,2.79,4.92l-10.45,37.85c-.04,.13-.08,.26-.13,.39-.43,1.16-.53,2.74-.29,3.1h0s.06,.03,.16,.07c2.45,.94,4.26,.07,5.77-.82l.27-.16c1.96-1.13,3.62-3.68,4.66-7.18,.63-2.12,2.86-3.32,4.98-2.69,2.12,.63,3.32,2.86,2.69,4.98-2.09,7.02-5.69,10.31-8.35,11.83l-.19,.11c-1.14,.67-3.96,2.33-7.76,2.33Z"/>
    <path class="cls-7" d="M123.91,62.45c-3.62,0-6.89-1.37-9.34-3.95-3.41-3.59-4.78-9.09-3.78-15.09,1.76-10.53,10.19-19.57,19.18-20.6,4.29-.49,8.2,.88,11.02,3.85,3.41,3.59,4.78,9.09,3.78,15.09h0c-1.76,10.53-10.19,19.57-19.18,20.6-.57,.06-1.13,.1-1.68,.1Zm7.75-31.74c-.25,0-.51,.02-.78,.05-5.45,.62-11.03,7.02-12.2,13.97-.58,3.45,.05,6.54,1.69,8.27,1.08,1.14,2.54,1.62,4.31,1.41,5.45-.62,11.03-7.02,12.2-13.97h0c.58-3.45-.05-6.54-1.69-8.27-.92-.97-2.11-1.46-3.53-1.46Z"/>
    <path class="cls-5" d="M136.41,47.26c-2.94,0-6.06-.43-9.33-1.49-4.98-1.61-6.93-4.57-7.69-6.78-1.84-5.33,1.61-10.64,2-11.23,1.24-1.83,3.73-2.31,5.55-1.07,1.82,1.23,2.3,3.71,1.08,5.54-.67,1.02-1.47,3.05-1.07,4.17,.3,.86,1.57,1.43,2.58,1.76,7.91,2.55,14.75,.18,20.4-2.47,2-.94,4.38-.08,5.32,1.92,.94,2,.08,4.38-1.92,5.32-4.6,2.16-10.32,4.33-16.92,4.33Z"/>
    <path class="cls-6" d="M13.21,61.79c-.41,0-.83-.06-1.24-.2-2.1-.69-3.25-2.95-2.56-5.05l7.16-21.88c-6.2,2.53-11.11,4.09-11.36,4.17-2.11,.67-4.35-.5-5.02-2.61-.66-2.11,.5-4.35,2.61-5.02,5.14-1.62,11.42-4.04,17.11-6.74l5.32-16.26C27.37,1.64,31.63,.37,33.27,.13c2.5-.51,6.14,.46,8.58,3.36,1.65,1.96,3.91,6.32,.6,13.5-2.03,4.4-7.28,8.73-16,13.18l-9.44,28.86c-.55,1.69-2.12,2.76-3.8,2.76ZM34.47,8.04c-.19,.1-.98,.61-1.64,2.65l-2.61,7.96c2.46-1.73,4.24-3.44,4.97-5.01,.98-2.13,1.23-3.88,.68-4.8-.34-.57-.96-.78-1.2-.83-.07,.01-.13,.02-.2,.03Zm-.39,.03h0Zm0,0h0Zm0,0s0,0,0,0c0,0,0,0,0,0Zm0,0h0Zm.89-.13s0,0,0,0c0,0,0,0,0,0Z"/>
  </g>
</svg>