<?xml version="1.0" encoding="UTF-8"?>
<svg id="Layer_1" data-name="Layer 1" xmlns="http://www.w3.org/2000/svg" viewBox="0 0 464.95 380.19">
  <defs>
    <style>
      .cls-1 {
        fill: #6e958c;
      }
    </style>
  </defs>
  <path class="cls-1" d="M19.81,371.74c28.95,2.63,58.73-2.8,85.65-13.49,14.51-5.76,28.53-12.54,41.9-20.62,13.34-8.06,25.92-17.26,38.1-26.97,21.45-17.11,41.14-36.56,58.79-57.57,18.42-21.92,34.99-45.48,48.42-70.79,13.26-24.97,23.92-51.63,30.63-79.13,3.49-14.31,6.41-29.23,7.21-43.95,.89-16.4-2.87-34.3-15.15-46.06-6.28-6.01-14.54-10.68-23.18-12.14-9.45-1.6-18.27-1.32-27.66,.83-14.18,3.25-27.48,10.8-39.08,19.4-12.46,9.24-23.76,19.61-33.65,31.57-9.97,12.06-18.94,24.91-26.51,38.61-14.67,26.56-24.91,55.74-30.5,85.55s-8.09,58.65-4.3,87.66c1.05,8.07,2.26,16.08,4.3,23.97,2.01,7.76,4.86,15.14,8.02,22.5,5.72,13.3,14.34,25.74,24.89,35.65,23.21,21.79,55.74,33.95,87.53,33.41,16.93-.29,33.47-4.2,48.58-11.84,14.59-7.39,26.18-18.81,36.01-31.65,9.07-11.84,15.46-25.35,20.8-39.22,4.51-11.73,7.79-23.93,9.71-36.35,4.26-27.47,3.81-56.28-5.8-82.68-2.56-7.04-5.56-14.02-9.2-20.58-3.71-6.67-8.22-12.8-13.04-18.71-4.07-4.99-8.62-9.61-13.68-13.6-3.79-3-7.61-5.98-11.75-8.48s-8.78-4.52-13.38-6.4c-7.58-3.1-15.97-4.69-24.15-4.78-9.52-.09-18.32,2.24-26.82,6.36-6.69,3.24-13,8.26-17.62,14.09-2.72,3.44-5.43,6.83-7.22,10.86-2.28,5.11-3.82,9.42-4.56,14.9-1.34,9.99,.53,19.28,4.96,28.31,3.24,6.61,8.48,12.59,14.22,17.16,6.11,4.87,12.39,9.05,19.54,12.21s13.96,5.82,21.25,7.88c25.89,7.34,53.3,7.57,79.58,2.29,13.26-2.66,25.92-7.2,38.22-12.77,12.24-5.53,23.26-12.77,33.83-21,9.11-7.08,17.33-15.23,24.4-24.35,1.93-1.79,3.3-3.92,4.09-6.37,1.24-2.36,1.81-4.9,1.71-7.63,0-4.86-2.16-10.66-5.8-14s-8.73-6.04-14-5.8c-4.86,.22-10.87,1.76-14,5.8-7.14,9.2-15.44,17.4-24.64,24.53l4.01-3.1c-10.19,7.83-21.35,14.27-33.17,19.28l4.73-2c-12.8,5.37-26.25,9.03-40.01,10.89l5.26-.71c-13.13,1.72-26.43,1.78-39.56,.04l5.26,.71c-11.93-1.63-23.65-4.72-34.75-9.41l4.73,2c-5.83-2.5-11.41-5.54-16.44-9.41l4.01,3.1c-2.91-2.3-5.57-4.85-7.86-7.77l3.1,4.01c-1.7-2.24-3.13-4.63-4.24-7.22l2,4.73c-.92-2.27-1.56-4.59-1.91-7.01,.24,1.75,.47,3.51,.71,5.26-.29-2.36-.27-4.69,.04-7.04l-.71,5.26c.36-2.32,.99-4.55,1.86-6.73-.67,1.58-1.33,3.15-2,4.73,1.16-2.75,2.66-5.29,4.47-7.66l-3.1,4.01c2.01-2.55,4.3-4.82,6.86-6.82l-4.01,3.1c2.61-1.98,5.41-3.63,8.42-4.94l-4.73,2c3.01-1.25,6.12-2.13,9.35-2.56l-5.26,.71c3.86-.46,7.71-.41,11.57,.09l-5.26-.71c4.53,.66,8.9,1.91,13.13,3.64l-4.73-2c5.58,2.36,10.76,5.47,15.57,9.14-1.34-1.03-2.67-2.06-4.01-3.1,6.03,4.68,11.35,10.16,16.04,16.18-1.03-1.34-2.06-2.67-3.1-4.01,5.48,7.13,9.96,14.93,13.49,23.2l-2-4.73c4.31,10.28,7.1,21.11,8.61,32.15-.24-1.75-.47-3.51-.71-5.26,1.85,14.03,1.65,28.25-.23,42.27l.71-5.26c-2.11,15.3-6.22,30.26-12.19,44.51l2-4.73c-4.47,10.55-9.99,20.65-16.99,29.75l3.1-4.01c-4.78,6.13-10.19,11.7-16.33,16.47,1.34-1.03,2.67-2.06,4.01-3.1-5.28,4.03-10.99,7.38-17.09,10.01l4.73-2c-7.28,3.06-14.91,5.06-22.72,6.13l5.26-.71c-8.83,1.13-17.74,1.06-26.56-.07l5.26,.71c-9.74-1.31-19.23-3.91-28.31-7.68l4.73,2c-8.16-3.45-15.87-7.82-22.91-13.19l4.01,3.1c-6.15-4.76-11.65-10.22-16.41-16.36l3.1,4.01c-5.17-6.77-9.35-14.2-12.67-22.04l2,4.73c-4.69-11.27-7.55-23.17-9.19-35.24l.71,5.26c-2.92-22.12-1.92-44.7,1-66.77l-.71,5.26c3.39-25.21,9.84-49.99,19.73-73.45l-2,4.73c7.97-18.74,18.11-36.55,30.55-52.69l-3.1,4.01c9.22-11.89,19.69-22.79,31.59-32.02l-4.01,3.1c7.9-6.07,16.42-11.64,25.63-15.54l-4.73,2c5.12-2.12,10.44-3.7,15.94-4.47l-5.26,.71c3.66-.47,7.32-.56,10.98-.1l-5.26-.71c2.74,.39,5.38,1.07,7.93,2.14l-4.73-2c2,.89,3.85,1.97,5.6,3.29l-4.01-3.1c1.77,1.4,3.33,2.97,4.72,4.74l-3.1-4.01c1.45,1.92,2.62,3.98,3.59,6.18l-2-4.73c1.42,3.4,2.28,6.95,2.77,10.59l-.71-5.26c.88,7.15,.4,14.35-.55,21.46,.24-1.75,.47-3.51,.71-5.26-3.62,26.43-10.96,52.22-21.31,76.79l2-4.73c-9.5,22.43-21.43,43.78-35.26,63.82-3.98,5.77-8.12,11.42-12.4,16.97,1.03-1.34,2.06-2.67,3.1-4.01-16.54,21.38-35.16,41.17-55.45,59.03-5.99,5.27-12.15,10.36-18.46,15.24l4.01-3.1c-19.26,14.83-40.07,27.74-62.5,37.22l4.73-2c-15.71,6.59-32.14,11.41-49.04,13.72l5.26-.71c-11.81,1.56-23.73,1.88-35.6,.8-4.78-.43-10.72,2.52-14,5.8S-.21,347,.01,351.94s1.91,10.43,5.8,14,8.51,5.3,14,5.8h0Z"/>
</svg>